PathFileType	4	(X/Y/Z)	/Users/niels/Desktop/University/Third Semester/Perception and Action/Exam/Gymnastics Motion Tracking/Code for Gym Tracking/Analyzed Data/Webcam_Backflip/id11_2_trajectory_Sports2D/id11_2_trajectory_Sports2D_px_person00.trc
DataRate	CameraRate	NumFrames	NumMarkers	Units	OrigDataRate	OrigDataStartFrame	OrigNumFrames
29.714285714285715	29.714285714285715	12	22	m	29.714285714285715	52	105
Frame#	Time	Hip			RHip			RKnee			RAnkle			RBigToe			RSmallToe			RHeel			LHip			LKnee			LAnkle			LBigToe			LSmallToe			LHeel			Neck			Head			Nose			RShoulder			RElbow			RWrist			LShoulder			LElbow			LWrist		
		X1	Y1	Z1	X2	Y2	Z2	X3	Y3	Z3	X4	Y4	Z4	X5	Y5	Z5	X6	Y6	Z6	X7	Y7	Z7	X8	Y8	Z8	X9	Y9	Z9	X10	Y10	Z10	X11	Y11	Z11	X12	Y12	Z12	X13	Y13	Z13	X14	Y14	Z14	X15	Y15	Z15	X16	Y16	Z16	X17	Y17	Z17	X18	Y18	Z18	X19	Y19	Z19	X20	Y20	Z20	X21	Y21	Z21	X22	Y22	Z22
52	1.75	0.9659877877114862	-0.5089826839560758	0.0	0.9502796433019316	-0.5209065948545157	0.0	0.9542347442513189	-0.7463913236940938	0.0	0.9349602091881918	-0.9523613331356645	0.0	1.003397847839045	-1.0208672910496013	0.0	0.9750964123232336	-1.0195066644114845	0.0	0.9106725501469277	-0.9784677009558685	0.0	0.9794461888537129	-0.5287070349294197	0.0	0.9629211378717538	-0.7481375176285696	0.0	0.9395150838999451	-0.9418604604795813	0.0	1.0068738970307332	-1.0056382444530472	0.0	1.0031264668260793	-0.9966821816923835	0.0	0.9129453774157875	-0.9640817017899193	0.0	0.976526519711587	-0.23497066493359137	0.0	0.9972871333551708	-0.12412278857396612	0.0	1.0080405837606639	-0.18763856015148517	0.0	0.9345054397430503	-0.24781900256703304	0.0	0.9592842379632662	-0.1234434701273669	0.0	0.9483519869461657	-0.01702188595169354	0.0	1.0100280953458063	-0.27774040052156834	0.0	0.9942102334022683	-0.13533916276515345	0.0	0.9824796565743972	-0.132564921999193	0.0
53	1.783653846153846	0.9683038319785239	-0.5258540826047057	0.0	0.9541728377807002	-0.5350558260525969	0.0	0.9636241575550133	-0.7597572627754614	0.0	0.9341696890062711	-0.9613269907123126	0.0	1.0077115793772464	-1.0261731228681512	0.0	0.9805716352279135	-1.0262193301316667	0.0	0.9085657106346834	-0.9868139459474542	0.0	0.9813912685351274	-0.541450916486024	0.0	0.9701125431992547	-0.761083543456373	0.0	0.9381062534762973	-0.9507253647652157	0.0	1.0117283396294596	-1.0114188685908312	0.0	1.007064460320733	-1.00242354740399	0.0	0.9103347271819311	-0.9730184125824756	0.0	0.9762208029176253	-0.2504379808779298	0.0	0.9985948231115245	-0.13631868061383168	0.0	1.0091682902650678	-0.20302719474769523	0.0	0.9334301755130008	-0.26444641533136987	0.0	0.9574397873135903	-0.13903907383087094	0.0	0.9445240543026557	-0.029539892414196255	0.0	1.0113804223300888	-0.2906890379462118	0.0	0.9914700593512902	-0.14736803679384594	0.0	0.9770560244080337	-0.11788260974766172	0.0
54	1.8173076923076923	0.9695463385150059	-0.5444777729715203	0.0	0.9578747695940093	-0.5508832359112286	0.0	0.9735762397565572	-0.773555996341082	0.0	0.9318999648753818	-0.9695101002816175	0.0	1.0105763001433248	-1.0307404727400236	0.0	0.9849614024620426	-1.0325473084375396	0.0	0.9050827390121214	-0.9946705893702387	0.0	0.9820851610580416	-0.5553369854416704	0.0	0.9776153930741386	-0.7739295886433432	0.0	0.9353644482646781	-0.9583917066176797	0.0	1.0165652490058745	-1.0158099193358456	0.0	1.0100641860032329	-1.0067920707562306	0.0	0.9061306243056457	-0.9809279861464334	0.0	0.9748465134992083	-0.2675648432771426	0.0	0.9993562438441813	-0.15192553142485155	0.0	1.0095713033790656	-0.22027117420692327	0.0	0.9329239286755894	-0.28308568006277934	0.0	0.9578684407177755	-0.1569752185028452	0.0	0.9433633743811922	-0.04483182553080884	0.0	1.0084555271343079	-0.30482178174179797	0.0	0.989176091045672	-0.1624147180204783	0.0	0.97403278623363	-0.10463385537102166	0.0
55	1.8509615384615383	0.9701122470352684	-0.5617909637300733	0.0	0.9607483027561126	-0.5654519259810441	0.0	0.9824247248790178	-0.7853252521347047	0.0	0.9289664166471362	-0.9758205947893588	0.0	1.0121049773512805	-1.0338158782131956	0.0	0.9878647321107327	-1.0373505520991684	0.0	0.9013352462739219	-1.000901814826504	0.0	0.9822856475630265	-0.5679095038382967	0.0	0.9844044547421994	-0.7847538762326347	0.0	0.9324290274285246	-0.9640312559385508	0.0	1.0210017017193977	-1.018349662094985	0.0	1.0121933774747003	-1.0093281477437834	0.0	0.9018964498488707	-0.9867187707974735	0.0	0.9730606476328112	-0.28402821581733306	0.0	1.000019506347412	-0.16774295719531823	0.0	1.0090366638440695	-0.2365697173281444	0.0	0.9328711793052802	-0.30056753981918005	0.0	0.9590702794307491	-0.17424067470003682	0.0	0.9436526854134017	-0.05957456026152544	0.0	1.003201634782007	-0.3185952073862832	0.0	0.9877454403527645	-0.17776179125634453	0.0	0.9738078866397318	-0.09739142413035996	0.0
56	1.8846153846153846	0.9704327703	-0.5754567849409803	0.0	0.9624942898885562	-0.5765016188351814	0.0	0.9886089027866084	-0.7935297161353593	0.0	0.9262086085620593	-0.9801554806835959	0.0	1.0126567237230228	-1.035385797632419	0.0	0.9893489671396942	-1.0403412679737734	0.0	0.8983323744532249	-1.0054069396719068	0.0	0.9825825742107004	-0.5773774734941357	0.0	0.9892694261644069	-0.7923524623369914	0.0	0.9301830530884547	-0.9678083817745422	0.0	1.024619536359928	-1.0195259070637879	0.0	1.0137010075744686	-1.0105986917262022	0.0	0.8988592203402382	-0.9905467685181889	0.0	0.97145264226485	-0.29779856294296103	0.0	1.0008947655364453	-0.18118292042246806	0.0	1.0076252797504703	-0.2495941393660052	0.0	0.9331034616451385	-0.3144037146612222	0.0	0.9601150965741114	-0.18819564998748758	0.0	0.944787959713096	-0.0711827673632455	0.0	0.9974458862887012	-0.3303245413862134	0.0	0.9875982855983217	-0.19118791902557164	0.0	0.9765444996176356	-0.09530476736240123	0.0
57	1.9182692307692306	0.9706582649159473	-0.5841962242388983	0.0	0.9631482693756827	-0.5830290244671685	0.0	0.9911350053046046	-0.7977846319774679	0.0	0.9240576776903778	-0.9828885098356408	0.0	1.012685228404537	-1.035846210733948	0.0	0.9897747584077639	-1.041788670423748	0.0	0.8964960330086296	-1.0085747403554735	0.0	0.9829370933736459	-0.5829069754003064	0.0	0.9912095920013101	-0.7963710222003983	0.0	0.9289032782637224	-0.9702893495943666	0.0	1.0271432634861823	-1.0201488120327558	0.0	1.0148551306157494	-1.0115316866305326	0.0	0.8974343105625046	-0.9931783795391813	0.0	0.970315544552442	-0.30739139442367047	0.0	1.0019842506372603	-0.19070444330042444	0.0	1.0056817637447248	-0.25806558167108967	0.0	0.933519475517194	-0.3232765776926316	0.0	0.9607601632394558	-0.19730144137404762	0.0	0.9465098198454944	-0.07854213216723648	0.0	0.992291207687835	-0.338517902533093	0.0	0.9886006164927629	-0.20125512737094725	0.0	0.9816762626773254	-0.0959363884305212	0.0
58	1.9519230769230769	0.9706595272040338	-0.5880200810977889	0.0	0.9628655747240674	-0.5853571958346144	0.0	0.9898498174873619	-0.7987721428872587	0.0	0.9225252056738946	-0.9844465974598181	0.0	1.0125172066139245	-1.035743880973091	0.0	0.9895235712208249	-1.042193846213501	0.0	0.8956829834798438	-1.0107812303800443	0.0	0.9828516402661438	-0.5847271301184708	0.0	0.989941810601546	-0.7973535117033335	0.0	0.9283736062018607	-0.9719525144616782	0.0	1.0284030078889628	-1.0208334498786462	0.0	1.015683401986955	-1.01275375428391	0.0	0.8973399218139894	-0.99531160846826	0.0	0.969632865970363	-0.31224805917673437	0.0	1.0031108672966076	-0.19581234545209159	0.0	1.003710039674656	-0.2619154110891204	0.0	0.9340812081592631	-0.3271998187814595	0.0	0.9611257968460843	-0.20145860557541834	0.0	0.948530993263848	-0.08190735632454747	0.0	0.9882027088317351	-0.3425164977026371	0.0	0.9900661007716218	-0.20721800940106422	0.0	0.987948396854143	-0.09718657503347358	0.0
59	1.985576923076923	0.9702296151021694	-0.5880704647439002	0.0	0.9617634979310226	-0.5847101141590149	0.0	0.9854705450253036	-0.797820363366543	0.0	0.9214320947875125	-0.9852408223844801	0.0	1.0122696248271272	-1.0355910727596906	0.0	0.9888934234922861	-1.0420785231267775	0.0	0.8954818379177378	-1.0123102008623999	0.0	0.9818984685595816	-0.58391772965952	0.0	0.9860735110909589	-0.7964606554883734	0.0	0.9281814128046344	-0.9730711630877631	0.0	1.0283730797634807	-1.0218347273628767	0.0	1.0160050693692733	-1.0143681239829552	0.0	0.897976960717573	-0.997302411327567	0.0	0.9693109006738149	-0.312946103109508	0.0	1.0041488108415921	-0.1969693942735497	0.0	1.0021061051349383	-0.26201203770275827	0.0	0.9347389632341452	-0.32732140693758865	0.0	0.9612845058157794	-0.2016135939777499	0.0	0.9503412024326556	-0.08228019675581826	0.0	0.9854806272610853	-0.34285131116369194	0.0	0.991217010378925	-0.2089492040525511	0.0	0.9940009135710834	-0.09781193121708719	0.0
60	2.019230769230769	0.9692821706342595	-0.5860087556157263	0.0	0.9599689212424956	-0.5825420619555247	0.0	0.9793269412161744	-0.7962917633115613	0.0	0.9205874122262198	-0.9856981310389006	0.0	1.011935404675436	-1.035694722811213	0.0	0.9880968915533412	-1.0418673575626818	0.0	0.8954856781793024	-1.0133969940258618	0.0	0.9801249007167083	-0.5818408437412558	0.0	0.9807938308307274	-0.7949312514034038	0.0	0.9279981457082752	-0.9737958622741187	0.0	1.0272768440666136	-1.0230467965453147	0.0	1.0156827774783643	-1.0160445507334184	0.0	0.8987634883931718	-0.9991572707835695	0.0	0.9693444615782457	-0.31085118636070114	0.0	1.0051313840178708	-0.19532673453201324	0.0	1.0010497965769338	-0.2597060185980082	0.0	0.9353729701621734	-0.3252602821932853	0.0	0.9611697545932932	-0.19918397620433081	0.0	0.9513907775818383	-0.08082444186116258	0.0	0.9843903888264088	-0.3408503044657849	0.0	0.9917483116538568	-0.2071732991472551	0.0	0.9991108552180425	-0.0974405409373211	0.0
61	2.0528846153846154	0.9679110838338852	-0.5833462141995901	0.0	0.9577500717817796	-0.580067086560265	0.0	0.972845434412662	-0.7951265072818933	0.0	0.9198353014803077	-0.9861642143112345	0.0	1.0114861629563425	-1.0361178256478556	0.0	0.9872420858413	-1.0418318003665437	0.0	0.8954322047690688	-1.0141880776475356	0.0	0.9779345364955807	-0.5796210612793588	0.0	0.9753084216687651	-0.7936835768680398	0.0	0.927679435874197	-0.974254859623801	0.0	1.0255147149300312	-1.0241422333468706	0.0	1.0147220091604294	-1.0173000261312866	0.0	0.8992854369972795	-1.0006620718870927	0.0	0.9697070472166843	-0.3074415511220043	0.0	1.0062102590722621	-0.19225460279082848	0.0	1.0006018772400094	-0.25640988489125566	0.0	0.9358966957257479	-0.32236534757725666	0.0	0.960760172807595	-0.19565622114348685	0.0	0.9515431445189045	-0.07857289506373859	0.0	0.9847625743035758	-0.3378554822847662	0.0	0.9919125517399136	-0.20342022566516704	0.0	1.0032801710583548	-0.09633931520613245	0.0
62	2.0865384615384612	0.9663344959532011	-0.5810827408309329	0.0	0.9554835005056745	-0.5781158498913992	0.0	0.9670589053712283	-0.7947161760882181	0.0	0.9190460307588731	-0.9867933047145387	0.0	1.0109062404059146	-1.0367559427168338	0.0	0.9863573240597732	-1.0420587679922106	0.0	0.8952339829546574	-1.0147862980722262	0.0	0.9756880522925242	-0.577936829792999	0.0	0.9704158811887255	-0.7931633138607147	0.0	0.9271934281277399	-0.9745914917215273	0.0	1.0235038768225795	-1.0248059657835917	0.0	1.013241399407943	-1.017838448069228	0.0	0.8993440118905366	-1.0016144405335938	0.0	0.9702175894890578	-0.3038677054886333	0.0	1.0075006238027264	-0.18898162642324087	0.0	1.0007748349239844	-0.25330276098995497	0.0	0.9363777637915979	-0.3194764230871491	0.0	0.960261451250618	-0.19220995681863387	0.0	0.951265416199357	-0.07629953266258598	0.0	0.9858071692761391	-0.3347685259861954	0.0	0.992096106008659	-0.1993847633721184	0.0	1.0067106281399218	-0.09498442833866802	0.0
63	2.1201923076923075	0.9647695437658953	-0.5796531890026557	0.0	0.9534693089380293	-0.5770373144796922	0.0	0.962450825087377	-0.7950453704122251	0.0	0.9181645858145915	-0.987582339232764	0.0	1.0101887812378696	-1.0374331949348579	0.0	0.9854955678169196	-1.0424933407290584	0.0	0.8949414978980479	-1.0153609631962073	0.0	0.9735328136645475	-0.5769763671200432	0.0	0.9664526584354743	-0.7933814253185371	0.0	0.926580347588145	-0.9749495869636282	0.0	1.0215752080001792	-1.024909126252555	0.0	1.0114597473463465	-1.0176982547097189	0.0	0.8989679466508184	-1.0020133184707787	0.0	0.9706288402413055	-0.30090030873488466	0.0	1.0089701509354922	-0.18647791131512678	0.0	1.0015315559883122	-0.2511959818374932	0.0	0.9369794386635414	-0.31705919679939865	0.0	0.9601298746682754	-0.18951259309853308	0.0	0.951391602798878	-0.07441351887709204	0.0	0.9865606174916474	-0.3321034174474532	0.0	0.9924813428684018	-0.19628314860072404	0.0	1.0094847866747148	-0.09371167880453612	0.0
